<svg xmlns="http://www.w3.org/2000/svg" viewBox="0 0 24 24" fill="currentColor">
  <path d="M12 18.5a1.75 1.75 0 1 0 0 3.5 1.75 1.75 0 0 0 0-3.5z"/>
  <path d="M12 14.2c-1.85 0-3.52.72-4.78 1.88l1.48 1.48A4.7 4.7 0 0 1 12 16.2c1.2 0 2.3.45 3.15 1.18l1.48-1.48A6.75 6.75 0 0 0 12 14.2z"/>
  <path d="M12 9.6c-3.15 0-6 1.22-8.12 3.2l1.48 1.48A9.35 9.35 0 0 1 12 11.6c2.5 0 4.78.97 6.5 2.55l1.48-1.48A11.75 11.75 0 0 0 12 9.6z"/>
  <path d="M12 5c-4.45 0-8.48 1.72-11.5 4.52l1.48 1.48A14.25 14.25 0 0 1 12 7c3.82 0 7.3 1.5 9.9 3.95L23.38 9.5A16.65 16.65 0 0 0 12 5z"/>
</svg>
